# xmcd CD database file
#
# Track frame offsets:
#	150
#	14292
#	33745
#	55457
#	80122
#	97535
#	116855
#	142155
#	163437
#	168232
#	187787
#
# Disc length: 2815 seconds
#
# Revision: 0
# Processed by: cddbd v1.5.1PL2 Copyright (c) Steve Scherf et al.
# Submitted via: CDex 1.51
#
DISCID=950afd0b
DTITLE=勝手にしやがれ - デカダンス・ピエロ
DYEAR=2003
DGENRE=Jazz
TTITLE0=奴隷
TTITLE1=スイサイダル・スウィング
TTITLE2=メランコリック・デカダンス・ピエロ
TTITLE3=愚かな人
TTITLE4=ミシェル・セッド…
TTITLE5=エレファント・ピエロ
TTITLE6=祈りのオリオン
TTITLE7=チュニジアの夜
TTITLE8=Z28
TTITLE9=ドント・ウォーリー・ザムザ
TTITLE10=グッドバイ・ポーク・パイ・ハット
EXTD=YEAR: 2003
EXTT0=
EXTT1=
EXTT2=
EXTT3=
EXTT4=
EXTT5=
EXTT6=
EXTT7=
EXTT8=
EXTT9=
EXTT10=
PLAYORDER=
